<?xml version="1.0" encoding="UTF-8" standalone="no"?>
<!DOCTYPE svg PUBLIC "-//W3C//DTD SVG 1.1//EN"
 "http://www.w3.org/Graphics/SVG/1.1/DTD/svg11.dtd">
<!-- Generated by graphviz version 2.40.1 (20161225.0304)
 -->
<!-- Title: dependencies Pages: 1 -->
<svg width="3415pt" height="284pt"
 viewBox="0.00 0.00 3415.00 284.00" xmlns="http://www.w3.org/2000/svg" xmlns:xlink="http://www.w3.org/1999/xlink">
<g id="graph0" class="graph" transform="scale(1 1) rotate(0) translate(4 280)">
<title>dependencies</title>
<polygon fill="#ffffff" stroke="transparent" points="-4,4 -4,-280 3411,-280 3411,4 -4,4"/>
<text text-anchor="start" x="1682.5091" y="-42.4" font-family="sans-serif" font-weight="bold" font-size="14.00" fill="#000000">Legend</text>
<polygon fill="#ffffb3" stroke="transparent" points="1469.5,-10 1469.5,-30 1489.5,-30 1489.5,-10 1469.5,-10"/>
<text text-anchor="start" x="1493.129" y="-15.4" font-family="sans-serif" font-size="14.00" fill="#000000"> &#160;Declarations</text>
<polygon fill="#8dd3c7" stroke="transparent" points="1582.5,-10 1582.5,-30 1602.5,-30 1602.5,-10 1582.5,-10"/>
<text text-anchor="start" x="1606.2251" y="-15.4" font-family="sans-serif" font-size="14.00" fill="#000000"> &#160;Module</text>
<polygon fill="#80b1d3" stroke="transparent" points="1668.5,-10 1668.5,-30 1688.5,-30 1688.5,-10 1668.5,-10"/>
<text text-anchor="start" x="1692.2812" y="-15.4" font-family="sans-serif" font-size="14.00" fill="#000000"> &#160;Bootstrap</text>
<polygon fill="#fdb462" stroke="transparent" points="1765.5,-10 1765.5,-30 1785.5,-30 1785.5,-10 1765.5,-10"/>
<text text-anchor="start" x="1789.1732" y="-15.4" font-family="sans-serif" font-size="14.00" fill="#000000"> &#160;Providers</text>
<polygon fill="#fb8072" stroke="transparent" points="1861.5,-10 1861.5,-30 1881.5,-30 1881.5,-10 1861.5,-10"/>
<text text-anchor="start" x="1885.2258" y="-15.4" font-family="sans-serif" font-size="14.00" fill="#000000"> &#160;Exports</text>
<g id="clust1" class="cluster">
<title>cluster_AppModule</title>
<polygon fill="none" stroke="#000000" stroke-dasharray="1,5" points="8,-70 8,-268 3399,-268 3399,-70 8,-70"/>
</g>
<g id="clust2" class="cluster">
<title>cluster_AppModule_declarations</title>
<polygon fill="none" stroke="#000000" points="612,-78 612,-130 3391,-130 3391,-78 612,-78"/>
</g>
<g id="clust18" class="cluster">
<title>cluster_AppModule_imports</title>
<polygon fill="none" stroke="#000000" points="460,-78 460,-130 604,-130 604,-78 460,-78"/>
</g>
<g id="clust20" class="cluster">
<title>cluster_AppModule_bootstrap</title>
<polygon fill="none" stroke="#000000" points="1711,-208 1711,-260 1835,-260 1835,-208 1711,-208"/>
</g>
<g id="clust21" class="cluster">
<title>cluster_AppModule_providers</title>
<polygon fill="none" stroke="#000000" points="16,-78 16,-130 452,-130 452,-78 16,-78"/>
</g>
<!-- AppComponent -->
<g id="node1" class="node">
<title>AppComponent</title>
<polygon fill="#ffffb3" stroke="#000000" points="3382.9399,-122 3277.0601,-122 3277.0601,-86 3382.9399,-86 3382.9399,-122"/>
<text text-anchor="middle" x="3330" y="-99.8" font-family="Times,serif" font-size="14.00" fill="#000000">AppComponent</text>
</g>
<!-- AppModule -->
<g id="node16" class="node">
<title>AppModule</title>
<polygon fill="#8dd3c7" stroke="#000000" points="1814.6571,-187 1811.6571,-191 1790.6571,-191 1787.6571,-187 1731.3429,-187 1731.3429,-151 1814.6571,-151 1814.6571,-187"/>
<text text-anchor="middle" x="1773" y="-164.8" font-family="Times,serif" font-size="14.00" fill="#000000">AppModule</text>
</g>
<!-- AppComponent&#45;&gt;AppModule -->
<g id="edge1" class="edge">
<title>AppComponent&#45;&gt;AppModule</title>
<path fill="none" stroke="#000000" d="M3330,-122.3228C3330,-145.6602 3330,-183 3330,-183 3330,-183 1825.0488,-183 1825.0488,-183"/>
<polygon fill="#000000" stroke="#000000" points="1825.0489,-179.5001 1815.0488,-183 1825.0488,-186.5001 1825.0489,-179.5001"/>
</g>
<!-- AvailableJobsComponent -->
<g id="node2" class="node">
<title>AvailableJobsComponent</title>
<polygon fill="#ffffb3" stroke="#000000" points="3259.1442,-122 3098.8558,-122 3098.8558,-86 3259.1442,-86 3259.1442,-122"/>
<text text-anchor="middle" x="3179" y="-99.8" font-family="Times,serif" font-size="14.00" fill="#000000">AvailableJobsComponent</text>
</g>
<!-- AvailableJobsComponent&#45;&gt;AppModule -->
<g id="edge2" class="edge">
<title>AvailableJobsComponent&#45;&gt;AppModule</title>
<path fill="none" stroke="#000000" d="M3179,-122.1554C3179,-144.3519 3179,-179 3179,-179 3179,-179 1824.6973,-179 1824.6973,-179"/>
<polygon fill="#000000" stroke="#000000" points="1824.6974,-175.5001 1814.6973,-179 1824.6973,-182.5001 1824.6974,-175.5001"/>
</g>
<!-- ExecutionRunComponent -->
<g id="node3" class="node">
<title>ExecutionRunComponent</title>
<polygon fill="#ffffb3" stroke="#000000" points="3080.9326,-122 2919.0674,-122 2919.0674,-86 3080.9326,-86 3080.9326,-122"/>
<text text-anchor="middle" x="3000" y="-99.8" font-family="Times,serif" font-size="14.00" fill="#000000">ExecutionRunComponent</text>
</g>
<!-- ExecutionRunComponent&#45;&gt;AppModule -->
<g id="edge3" class="edge">
<title>ExecutionRunComponent&#45;&gt;AppModule</title>
<path fill="none" stroke="#000000" d="M3000,-122.2843C3000,-143.3211 3000,-175 3000,-175 3000,-175 1824.8812,-175 1824.8812,-175"/>
<polygon fill="#000000" stroke="#000000" points="1824.8812,-171.5001 1814.8812,-175 1824.8811,-178.5001 1824.8812,-171.5001"/>
</g>
<!-- HeaderComponent -->
<g id="node4" class="node">
<title>HeaderComponent</title>
<polygon fill="#ffffb3" stroke="#000000" points="2900.7437,-122 2779.2563,-122 2779.2563,-86 2900.7437,-86 2900.7437,-122"/>
<text text-anchor="middle" x="2840" y="-99.8" font-family="Times,serif" font-size="14.00" fill="#000000">HeaderComponent</text>
</g>
<!-- HeaderComponent&#45;&gt;AppModule -->
<g id="edge4" class="edge">
<title>HeaderComponent&#45;&gt;AppModule</title>
<path fill="none" stroke="#000000" d="M2840,-122.308C2840,-142.1455 2840,-171 2840,-171 2840,-171 1824.8277,-171 1824.8277,-171"/>
<polygon fill="#000000" stroke="#000000" points="1824.8277,-167.5001 1814.8277,-171 1824.8276,-174.5001 1824.8277,-167.5001"/>
</g>
<!-- NoPageFoundComponent -->
<g id="node5" class="node">
<title>NoPageFoundComponent</title>
<polygon fill="#ffffb3" stroke="#000000" points="2760.934,-122 2599.066,-122 2599.066,-86 2760.934,-86 2760.934,-122"/>
<text text-anchor="middle" x="2680" y="-99.8" font-family="Times,serif" font-size="14.00" fill="#000000">NoPageFoundComponent</text>
</g>
<!-- NoPageFoundComponent&#45;&gt;AppModule -->
<g id="edge5" class="edge">
<title>NoPageFoundComponent&#45;&gt;AppModule</title>
<path fill="none" stroke="#000000" d="M2680,-122.2222C2680,-140.8285 2680,-167 2680,-167 2680,-167 1824.9274,-167 1824.9274,-167"/>
<polygon fill="#000000" stroke="#000000" points="1824.9275,-163.5001 1814.9274,-167 1824.9274,-170.5001 1824.9275,-163.5001"/>
</g>
<!-- WizardArmCartesianComponent -->
<g id="node6" class="node">
<title>WizardArmCartesianComponent</title>
<polygon fill="#ffffb3" stroke="#000000" points="2581.552,-122 2380.448,-122 2380.448,-86 2581.552,-86 2581.552,-122"/>
<text text-anchor="middle" x="2481" y="-99.8" font-family="Times,serif" font-size="14.00" fill="#000000">WizardArmCartesianComponent</text>
</g>
<!-- WizardArmCartesianComponent&#45;&gt;AppModule -->
<g id="edge6" class="edge">
<title>WizardArmCartesianComponent&#45;&gt;AppModule</title>
<path fill="none" stroke="#000000" d="M2481,-122.0225C2481,-139.3734 2481,-163 2481,-163 2481,-163 1824.9065,-163 1824.9065,-163"/>
<polygon fill="#000000" stroke="#000000" points="1824.9066,-159.5001 1814.9065,-163 1824.9065,-166.5001 1824.9066,-159.5001"/>
</g>
<!-- WizardArmJoinsComponent -->
<g id="node7" class="node">
<title>WizardArmJoinsComponent</title>
<polygon fill="#ffffb3" stroke="#000000" points="2362.465,-122 2185.535,-122 2185.535,-86 2362.465,-86 2362.465,-122"/>
<text text-anchor="middle" x="2274" y="-99.8" font-family="Times,serif" font-size="14.00" fill="#000000">WizardArmJoinsComponent</text>
</g>
<!-- WizardArmJoinsComponent&#45;&gt;AppModule -->
<g id="edge7" class="edge">
<title>WizardArmJoinsComponent&#45;&gt;AppModule</title>
<path fill="none" stroke="#000000" d="M2274,-122.0091C2274,-138.0494 2274,-159 2274,-159 2274,-159 1824.8533,-159 1824.8533,-159"/>
<polygon fill="#000000" stroke="#000000" points="1824.8533,-155.5001 1814.8533,-159 1824.8532,-162.5001 1824.8533,-155.5001"/>
</g>
<!-- WizardArmTrajectoryComponent -->
<g id="node8" class="node">
<title>WizardArmTrajectoryComponent</title>
<polygon fill="#ffffb3" stroke="#000000" points="2167.4846,-122 1960.5154,-122 1960.5154,-86 2167.4846,-86 2167.4846,-122"/>
<text text-anchor="middle" x="2064" y="-99.8" font-family="Times,serif" font-size="14.00" fill="#000000">WizardArmTrajectoryComponent</text>
</g>
<!-- WizardArmTrajectoryComponent&#45;&gt;AppModule -->
<g id="edge8" class="edge">
<title>WizardArmTrajectoryComponent&#45;&gt;AppModule</title>
<path fill="none" stroke="#000000" d="M2064,-122.1243C2064,-136.7832 2064,-155 2064,-155 2064,-155 1824.6932,-155 1824.6932,-155"/>
<polygon fill="#000000" stroke="#000000" points="1824.6932,-151.5001 1814.6932,-155 1824.6932,-158.5001 1824.6932,-151.5001"/>
</g>
<!-- WizardBaseComponent -->
<g id="node9" class="node">
<title>WizardBaseComponent</title>
<polygon fill="#ffffb3" stroke="#000000" points="1942.738,-122 1793.262,-122 1793.262,-86 1942.738,-86 1942.738,-122"/>
<text text-anchor="middle" x="1868" y="-99.8" font-family="Times,serif" font-size="14.00" fill="#000000">WizardBaseComponent</text>
</g>
<!-- WizardBaseComponent&#45;&gt;AppModule -->
<g id="edge9" class="edge">
<title>WizardBaseComponent&#45;&gt;AppModule</title>
<path fill="none" stroke="#000000" d="M1803.9797,-122.1061C1803.9797,-122.1061 1803.9797,-140.991 1803.9797,-140.991"/>
<polygon fill="#000000" stroke="#000000" points="1800.4797,-140.9909 1803.9797,-150.991 1807.4797,-140.991 1800.4797,-140.9909"/>
</g>
<!-- WizardGripperGripComponent -->
<g id="node10" class="node">
<title>WizardGripperGripComponent</title>
<polygon fill="#ffffb3" stroke="#000000" points="1774.7184,-122 1583.2816,-122 1583.2816,-86 1774.7184,-86 1774.7184,-122"/>
<text text-anchor="middle" x="1679" y="-99.8" font-family="Times,serif" font-size="14.00" fill="#000000">WizardGripperGripComponent</text>
</g>
<!-- WizardGripperGripComponent&#45;&gt;AppModule -->
<g id="edge10" class="edge">
<title>WizardGripperGripComponent&#45;&gt;AppModule</title>
<path fill="none" stroke="#000000" d="M1753.0155,-122.1061C1753.0155,-122.1061 1753.0155,-140.991 1753.0155,-140.991"/>
<polygon fill="#000000" stroke="#000000" points="1749.5155,-140.9909 1753.0155,-150.991 1756.5155,-140.991 1749.5155,-140.9909"/>
</g>
<!-- WizardGripperReleaseComponent -->
<g id="node11" class="node">
<title>WizardGripperReleaseComponent</title>
<polygon fill="#ffffb3" stroke="#000000" points="1564.591,-122 1355.409,-122 1355.409,-86 1564.591,-86 1564.591,-122"/>
<text text-anchor="middle" x="1460" y="-99.8" font-family="Times,serif" font-size="14.00" fill="#000000">WizardGripperReleaseComponent</text>
</g>
<!-- WizardGripperReleaseComponent&#45;&gt;AppModule -->
<g id="edge11" class="edge">
<title>WizardGripperReleaseComponent&#45;&gt;AppModule</title>
<path fill="none" stroke="#000000" d="M1460,-122.1243C1460,-136.7832 1460,-155 1460,-155 1460,-155 1721.1122,-155 1721.1122,-155"/>
<polygon fill="#000000" stroke="#000000" points="1721.1122,-158.5001 1731.1122,-155 1721.1122,-151.5001 1721.1122,-158.5001"/>
</g>
<!-- WizardJobComponent -->
<g id="node12" class="node">
<title>WizardJobComponent</title>
<polygon fill="#ffffb3" stroke="#000000" points="1336.972,-122 1195.028,-122 1195.028,-86 1336.972,-86 1336.972,-122"/>
<text text-anchor="middle" x="1266" y="-99.8" font-family="Times,serif" font-size="14.00" fill="#000000">WizardJobComponent</text>
</g>
<!-- WizardJobComponent&#45;&gt;AppModule -->
<g id="edge12" class="edge">
<title>WizardJobComponent&#45;&gt;AppModule</title>
<path fill="none" stroke="#000000" d="M1266,-122.0091C1266,-138.0494 1266,-159 1266,-159 1266,-159 1721.0787,-159 1721.0787,-159"/>
<polygon fill="#000000" stroke="#000000" points="1721.0788,-162.5001 1731.0787,-159 1721.0787,-155.5001 1721.0788,-162.5001"/>
</g>
<!-- WizardNewMethodComponent -->
<g id="node13" class="node">
<title>WizardNewMethodComponent</title>
<polygon fill="#ffffb3" stroke="#000000" points="1177.0056,-122 984.9944,-122 984.9944,-86 1177.0056,-86 1177.0056,-122"/>
<text text-anchor="middle" x="1081" y="-99.8" font-family="Times,serif" font-size="14.00" fill="#000000">WizardNewMethodComponent</text>
</g>
<!-- WizardNewMethodComponent&#45;&gt;AppModule -->
<g id="edge13" class="edge">
<title>WizardNewMethodComponent&#45;&gt;AppModule</title>
<path fill="none" stroke="#000000" d="M1081,-122.0225C1081,-139.3734 1081,-163 1081,-163 1081,-163 1721.2707,-163 1721.2707,-163"/>
<polygon fill="#000000" stroke="#000000" points="1721.2707,-166.5001 1731.2707,-163 1721.2706,-159.5001 1721.2707,-166.5001"/>
</g>
<!-- WizardParentComponent -->
<g id="node14" class="node">
<title>WizardParentComponent</title>
<polygon fill="#ffffb3" stroke="#000000" points="967.2907,-122 808.7093,-122 808.7093,-86 967.2907,-86 967.2907,-122"/>
<text text-anchor="middle" x="888" y="-99.8" font-family="Times,serif" font-size="14.00" fill="#000000">WizardParentComponent</text>
</g>
<!-- WizardParentComponent&#45;&gt;AppModule -->
<g id="edge14" class="edge">
<title>WizardParentComponent&#45;&gt;AppModule</title>
<path fill="none" stroke="#000000" d="M888,-122.2222C888,-140.8285 888,-167 888,-167 888,-167 1721.2063,-167 1721.2063,-167"/>
<polygon fill="#000000" stroke="#000000" points="1721.2063,-170.5001 1731.2063,-167 1721.2062,-163.5001 1721.2063,-170.5001"/>
</g>
<!-- WorkflowTableComponent -->
<g id="node15" class="node">
<title>WorkflowTableComponent</title>
<polygon fill="#ffffb3" stroke="#000000" points="790.238,-122 619.762,-122 619.762,-86 790.238,-86 790.238,-122"/>
<text text-anchor="middle" x="705" y="-99.8" font-family="Times,serif" font-size="14.00" fill="#000000">WorkflowTableComponent</text>
</g>
<!-- WorkflowTableComponent&#45;&gt;AppModule -->
<g id="edge15" class="edge">
<title>WorkflowTableComponent&#45;&gt;AppModule</title>
<path fill="none" stroke="#000000" d="M705,-122.308C705,-142.1455 705,-171 705,-171 705,-171 1721.1331,-171 1721.1331,-171"/>
<polygon fill="#000000" stroke="#000000" points="1721.1332,-174.5001 1731.1331,-171 1721.1331,-167.5001 1721.1332,-174.5001"/>
</g>
<!-- AppComponent  -->
<g id="node18" class="node">
<title>AppComponent </title>
<polygon fill="#80b1d3" stroke="#000000" points="1827.439,-252 1718.561,-252 1718.561,-216 1827.439,-216 1827.439,-252"/>
<text text-anchor="middle" x="1773" y="-229.8" font-family="Times,serif" font-size="14.00" fill="#000000">AppComponent </text>
</g>
<!-- AppModule&#45;&gt;AppComponent  -->
<g id="edge17" class="edge">
<title>AppModule&#45;&gt;AppComponent </title>
<path fill="none" stroke="#000000" stroke-dasharray="1,5" d="M1773,-187.1061C1773,-187.1061 1773,-205.991 1773,-205.991"/>
<polygon fill="#000000" stroke="#000000" points="1769.5001,-205.9909 1773,-215.991 1776.5001,-205.991 1769.5001,-205.9909"/>
</g>
<!-- AppRoutingModule -->
<g id="node17" class="node">
<title>AppRoutingModule</title>
<polygon fill="#8dd3c7" stroke="#000000" points="596.2744,-122 593.2744,-126 572.2744,-126 569.2744,-122 467.7256,-122 467.7256,-86 596.2744,-86 596.2744,-122"/>
<text text-anchor="middle" x="532" y="-99.8" font-family="Times,serif" font-size="14.00" fill="#000000">AppRoutingModule</text>
</g>
<!-- AppRoutingModule&#45;&gt;AppModule -->
<g id="edge16" class="edge">
<title>AppRoutingModule&#45;&gt;AppModule</title>
<path fill="none" stroke="#000000" d="M532,-122.2843C532,-143.3211 532,-175 532,-175 532,-175 1720.9986,-175 1720.9986,-175"/>
<polygon fill="#000000" stroke="#000000" points="1720.9986,-178.5001 1730.9986,-175 1720.9986,-171.5001 1720.9986,-178.5001"/>
</g>
<!-- EnvironmentUrlService -->
<g id="node19" class="node">
<title>EnvironmentUrlService</title>
<ellipse fill="#fdb462" stroke="#000000" cx="341" cy="-104" rx="103.0694" ry="18"/>
<text text-anchor="middle" x="341" y="-99.8" font-family="Times,serif" font-size="14.00" fill="#000000">EnvironmentUrlService</text>
</g>
<!-- EnvironmentUrlService&#45;&gt;AppModule -->
<g id="edge18" class="edge">
<title>EnvironmentUrlService&#45;&gt;AppModule</title>
<path fill="none" stroke="#000000" d="M341,-122.1554C341,-144.3519 341,-179 341,-179 341,-179 1721.3037,-179 1721.3037,-179"/>
<polygon fill="#000000" stroke="#000000" points="1721.3038,-182.5001 1731.3037,-179 1721.3037,-175.5001 1721.3038,-182.5001"/>
</g>
<!-- WizardStepperService -->
<g id="node20" class="node">
<title>WizardStepperService</title>
<ellipse fill="#fdb462" stroke="#000000" cx="122" cy="-104" rx="97.8093" ry="18"/>
<text text-anchor="middle" x="122" y="-99.8" font-family="Times,serif" font-size="14.00" fill="#000000">WizardStepperService</text>
</g>
<!-- WizardStepperService&#45;&gt;AppModule -->
<g id="edge19" class="edge">
<title>WizardStepperService&#45;&gt;AppModule</title>
<path fill="none" stroke="#000000" d="M122,-122.3228C122,-145.6602 122,-183 122,-183 122,-183 1720.9471,-183 1720.9471,-183"/>
<polygon fill="#000000" stroke="#000000" points="1720.9471,-186.5001 1730.9471,-183 1720.947,-179.5001 1720.9471,-186.5001"/>
</g>
</g>
</svg>
